<?xml version="1.0" standalone="no"?>
<!DOCTYPE svg PUBLIC "-//W3C//DTD SVG 20010904//EN"
 "http://www.w3.org/TR/2001/REC-SVG-20010904/DTD/svg10.dtd">
<svg version="1.0" xmlns="http://www.w3.org/2000/svg"
 width="50.000000pt" height="50.000000pt" viewBox="0 0 50.000000 50.000000"
 preserveAspectRatio="xMidYMid meet">

<g transform="translate(0.000000,50.000000) scale(0.100000,-0.100000)"
fill="#000000" stroke="none">
<path d="M205 471 c-3 -5 -1 -12 5 -16 5 -3 10 1 10 9 0 18 -6 21 -15 7z"/>
<path d="M245 470 c-3 -5 -1 -10 4 -10 6 0 11 5 11 10 0 6 -2 10 -4 10 -3 0
-8 -4 -11 -10z"/>
<path d="M130 440 c0 -5 5 -10 11 -10 5 0 7 5 4 10 -3 6 -8 10 -11 10 -2 0 -4
-4 -4 -10z"/>
<path d="M213 413 c11 -20 27 -33 39 -33 26 0 60 -18 80 -43 16 -20 15 -22
-24 -39 -22 -10 -42 -18 -44 -18 -2 0 -20 33 -40 73 -20 39 -38 74 -40 76 -2
2 -15 -4 -29 -13 -24 -16 -28 -16 -51 -1 -24 15 -24 15 -12 -4 6 -11 16 -17
21 -14 6 3 -1 -9 -14 -26 -35 -48 -34 -142 3 -198 28 -43 79 -72 139 -80 43
-6 43 -6 29 31 -6 18 -17 26 -33 26 -25 0 -88 37 -94 56 -3 9 76 49 83 41 1
-1 18 -35 38 -75 20 -39 40 -72 44 -72 5 0 27 16 50 36 70 59 79 141 26 219
-21 31 -23 40 -12 54 11 14 11 14 -3 3 -14 -10 -24 -10 -55 5 -22 10 -41 21
-44 24 -3 3 -21 6 -41 5 l-35 -1 19 -32z m-13 -105 c0 -16 -50 -48 -76 -48
-12 0 6 63 23 82 15 17 17 17 35 2 10 -10 18 -26 18 -36z m170 -48 c0 -6 -7
-26 -14 -45 -22 -52 -66 -44 -66 10 0 15 45 44 68 45 6 0 12 -5 12 -10z"/>
<path d="M341 434 c0 -11 3 -14 6 -6 3 7 2 16 -1 19 -3 4 -6 -2 -5 -13z"/>
<path d="M50 388 c0 -6 3 -8 7 -5 3 4 12 2 20 -4 8 -7 13 -8 13 -1 0 5 -7 13
-16 16 -22 8 -24 8 -24 -6z"/>
<path d="M430 349 c0 -5 -6 -7 -12 -3 -7 4 -9 3 -5 -1 13 -15 36 -14 30 1 -6
17 -13 18 -13 3z"/>
<path d="M392 127 c-22 -23 -22 -24 -2 -22 23 2 53 25 31 25 -7 0 -9 5 -6 10
11 17 -1 11 -23 -13z"/>
<path d="M86 122 c-3 -6 1 -13 10 -16 23 -9 28 -2 10 13 -8 7 -17 8 -20 3z"/>
<path d="M328 83 c-32 -16 -37 -34 -8 -26 11 3 20 9 20 14 0 5 6 6 14 3 8 -3
17 -1 20 4 10 17 -17 19 -46 5z"/>
<path d="M140 71 c0 -10 19 -25 25 -20 1 2 -3 10 -11 17 -8 7 -14 8 -14 3z"/>
<path d="M275 50 c-3 -5 -1 -10 4 -10 6 0 11 5 11 10 0 6 -2 10 -4 10 -3 0 -8
-4 -11 -10z"/>
</g>
</svg>
