<?xml version="1.0" standalone="no"?>
<!DOCTYPE svg PUBLIC "-//W3C//DTD SVG 20010904//EN"
 "http://www.w3.org/TR/2001/REC-SVG-20010904/DTD/svg10.dtd">
<svg version="1.0" xmlns="http://www.w3.org/2000/svg"
 width="513.000000pt" height="518.000000pt" viewBox="0 0 513.000000 518.000000"
 preserveAspectRatio="xMidYMid meet">

<g transform="translate(0.000000,518.000000) scale(0.100000,-0.100000)"
fill="#000000" stroke="none">
<path d="M2197 4984 c-2 -2 -20 -5 -41 -8 -57 -7 -65 -22 -23 -40 23 -9 38
-23 41 -38 7 -33 26 -153 26 -163 0 -5 -22 13 -50 40 -27 27 -50 55 -50 63 0
7 -3 11 -8 8 -4 -2 -30 18 -57 45 -49 49 -51 50 -105 46 -40 -2 -55 -7 -55
-18 0 -8 10 -15 23 -17 33 -5 45 -35 62 -152 18 -120 16 -137 -11 -145 -20 -7
-27 -35 -7 -35 6 0 40 5 75 11 42 7 63 16 63 25 0 8 -9 14 -20 14 -11 0 -26
10 -34 23 -15 22 -48 188 -40 197 3 2 57 -49 121 -113 115 -115 157 -142 147
-94 -9 46 -44 276 -44 292 0 8 11 21 25 27 32 14 27 33 -8 34 -15 1 -28 0 -30
-2z"/>
<path d="M2554 4933 c-14 -32 -42 -96 -62 -143 -45 -107 -60 -130 -89 -141
-41 -16 -15 -29 58 -29 53 0 69 3 69 14 0 8 -10 16 -22 18 -27 4 -30 22 -11
60 12 26 18 28 69 27 58 -2 65 -7 78 -60 5 -21 2 -28 -14 -32 -11 -3 -20 -12
-20 -21 0 -13 13 -16 80 -16 44 0 80 4 80 8 0 5 -12 17 -28 29 -22 16 -38 51
-82 182 -32 95 -60 161 -68 161 -7 0 -24 -26 -38 -57z m33 -90 c6 -21 15 -47
19 -58 7 -18 6 -19 -11 -5 -11 9 -16 10 -11 3 5 -10 -3 -13 -29 -13 l-35 0 16
38 c9 20 18 45 21 55 8 27 17 20 30 -20z"/>
<path d="M2935 4940 c-3 -5 5 -16 18 -25 l24 -16 -34 -137 c-30 -119 -38 -138
-55 -139 -28 -3 -46 -21 -27 -27 47 -17 141 -36 149 -31 16 10 11 22 -11 28
-19 5 -21 10 -14 53 15 105 37 99 83 -23 33 -87 36 -92 69 -98 19 -3 41 -9 49
-12 21 -8 17 21 -6 42 -12 11 -27 33 -35 49 -16 36 -45 107 -45 111 0 2 13 6
30 10 76 17 96 130 28 166 -20 11 -190 59 -208 59 -5 0 -11 -4 -15 -10z m158
-61 c45 -24 50 -67 12 -104 -22 -23 -73 -34 -87 -20 -3 3 2 35 11 70 17 67 25
74 64 54z"/>
<path d="M3545 4712 c-17 -15 -68 -59 -115 -97 -47 -37 -88 -73 -91 -78 -4 -5
-23 -13 -43 -16 -20 -3 -37 -10 -38 -16 -1 -12 113 -76 124 -69 13 8 9 22 -12
42 -20 18 -20 19 10 47 l30 29 53 -28 c52 -28 52 -29 48 -72 -3 -41 -5 -44
-28 -42 -50 6 -34 -21 31 -53 37 -18 69 -29 72 -26 4 4 1 20 -6 37 -10 24 -9
57 5 177 9 82 18 157 18 168 3 30 -25 29 -58 -3z m-20 -139 c-3 -19 -9 -33
-13 -31 -4 2 -19 10 -34 17 -16 8 -28 18 -28 22 0 4 17 22 38 39 36 30 37 30
40 9 2 -12 1 -37 -3 -56z"/>
<path d="M1294 4720 c-6 -6 -5 -40 2 -92 7 -46 16 -122 20 -170 6 -74 4 -91
-11 -114 -27 -42 -5 -45 63 -7 68 38 80 58 31 51 -25 -4 -32 -1 -40 19 -18 48
-11 62 42 89 l51 26 32 -29 c17 -15 33 -29 36 -31 3 -2 -3 -8 -13 -13 -16 -9
-24 -39 -11 -39 4 0 36 15 70 32 65 33 83 58 40 58 -29 0 -137 80 -131 98 3 7
1 11 -4 7 -5 -3 -38 20 -73 50 -76 67 -92 77 -104 65z m108 -157 c17 -18 16
-20 -17 -38 -19 -10 -37 -16 -39 -14 -2 2 -7 28 -11 58 l-7 54 28 -20 c16 -12
37 -29 46 -40z"/>
<path d="M3857 4564 c-3 -4 -2 -15 4 -26 22 -41 -16 -204 -59 -257 -29 -35
-49 -41 -84 -26 -39 16 -15 -25 45 -78 63 -57 94 -62 67 -13 -12 23 -10 29 14
60 32 42 38 46 140 81 49 17 89 25 107 21 47 -9 46 14 -2 55 -24 21 -50 39
-56 39 -15 0 -17 -26 -3 -35 27 -17 5 -29 -98 -55 -28 -7 -32 -6 -28 8 2 10
10 43 17 74 12 56 12 56 35 42 17 -12 24 -12 30 -3 5 8 -14 31 -52 66 -61 54
-66 57 -77 47z"/>
<path d="M2188 4551 c-53 -3 -99 -9 -102 -12 -4 -3 7 -35 24 -70 16 -35 30
-69 30 -76 0 -7 27 -70 61 -140 33 -70 68 -146 77 -168 9 -22 24 -55 35 -72
17 -30 24 -33 65 -33 185 0 472 -64 616 -137 137 -69 272 -177 387 -308 80
-93 179 -231 179 -251 0 -6 -26 -22 -57 -35 -32 -12 -95 -40 -141 -61 -46 -21
-85 -38 -88 -38 -2 0 -56 -25 -120 -55 -64 -30 -120 -55 -123 -55 -4 0 -29
-11 -57 -24 -68 -34 -245 -112 -270 -120 -18 -6 -57 68 -418 789 -219 437
-400 795 -402 795 -14 0 -142 -64 -229 -115 -166 -95 -240 -148 -384 -275
-110 -95 -94 -79 -195 -200 -49 -58 -93 -104 -98 -102 -5 1 -7 -2 -3 -8 4 -6
-15 -43 -41 -82 -108 -164 -192 -377 -235 -598 -8 -39 -13 -140 -13 -255 0
-156 4 -208 22 -291 24 -109 60 -228 97 -314 13 -30 37 -89 53 -130 57 -140
155 -314 229 -403 13 -16 20 -34 17 -39 -4 -6 -2 -8 3 -5 6 4 19 -6 29 -21 27
-41 190 -200 270 -264 288 -228 637 -373 1008 -418 83 -10 472 -13 488 -4 4 3
-6 34 -23 70 -16 36 -29 69 -29 74 0 4 -42 99 -94 211 l-94 204 -43 3 c-371
23 -640 111 -831 273 -107 90 -128 111 -121 122 3 5 1 7 -5 4 -20 -13 -251
288 -234 305 4 4 77 37 162 74 85 36 183 79 218 95 35 16 65 29 67 29 2 0 96
40 209 90 114 49 211 90 216 90 5 0 32 -48 60 -107 27 -60 54 -115 60 -123 5
-8 161 -315 345 -682 184 -368 338 -668 341 -668 16 0 277 142 349 190 207
137 409 324 515 475 14 20 35 49 47 64 31 39 98 154 134 231 111 235 169 515
154 740 -12 177 -58 394 -106 497 -10 24 -19 47 -19 53 0 6 -4 18 -10 28 -26
44 -79 186 -73 195 3 6 2 7 -4 4 -5 -3 -26 27 -46 66 -21 40 -45 84 -55 99
-59 92 -119 174 -161 220 -26 29 -58 66 -72 81 -13 16 -62 61 -108 100 -46 40
-89 77 -95 82 -6 6 -56 41 -111 77 -228 152 -470 248 -760 303 -75 14 -335 37
-380 33 -11 -1 -64 -4 -117 -7z m-336 -940 c62 -65 67 -73 140 -221 129 -263
73 -394 -222 -518 -52 -22 -149 -63 -215 -90 -66 -28 -155 -58 -198 -66 -70
-15 -80 -15 -107 -1 -29 15 -30 19 -30 79 0 117 47 317 112 478 17 42 36 74
41 71 6 -3 7 -1 3 5 -12 20 57 126 134 204 93 94 160 130 235 124 46 -3 54 -8
107 -65z m1890 -827 l31 -16 -6 -81 c-11 -158 -77 -397 -147 -538 -110 -218
-298 -364 -414 -319 -62 23 -176 183 -239 335 -42 99 -48 204 -17 266 47 92
108 133 342 230 68 28 150 62 183 76 59 25 185 61 218 62 10 1 32 -6 49 -15z"/>
<path d="M959 4487 c-25 -23 -75 -70 -112 -103 -68 -63 -80 -87 -51 -98 9 -4
14 -13 10 -22 -3 -8 -2 -12 3 -9 5 3 12 1 16 -5 3 -5 13 -10 21 -10 12 0 13 9
8 48 -5 40 -3 50 16 67 l22 20 25 -30 c14 -17 55 -63 92 -103 36 -40 68 -77
70 -83 1 -6 -5 -19 -15 -30 -13 -14 -15 -22 -6 -31 8 -8 28 5 76 48 36 33 66
62 66 66 0 14 -22 20 -33 9 -12 -12 -47 -15 -47 -3 0 4 -20 27 -45 52 -24 25
-44 48 -45 52 0 4 -21 28 -47 52 -26 25 -45 47 -42 48 2 2 14 11 25 21 20 17
24 17 60 2 55 -23 64 -5 23 44 -19 22 -36 41 -39 41 -3 0 -26 -19 -51 -43z"/>
<path d="M633 4133 c-4 -10 -19 -28 -34 -41 -38 -32 -54 -82 -39 -127 27 -81
115 -87 209 -14 45 36 111 16 111 -34 0 -16 -11 -35 -32 -52 -29 -24 -37 -26
-85 -20 -68 8 -71 -9 -8 -48 25 -16 42 -33 39 -39 -4 -6 3 -5 15 1 11 7 21 17
21 23 0 5 18 27 39 48 30 29 41 49 46 83 18 118 -88 164 -200 88 -51 -34 -85
-39 -109 -15 -22 22 -20 41 9 70 23 23 30 25 80 19 68 -9 71 3 9 44 -52 36
-62 38 -71 14z"/>
<path d="M4250 4074 c-163 -40 -264 -56 -282 -45 -44 27 -51 2 -12 -50 14 -19
29 -40 33 -48 5 -8 16 -11 25 -8 14 6 15 11 6 28 -14 25 -5 36 36 45 28 5 34
1 62 -37 38 -51 39 -56 8 -94 -24 -29 -24 -30 -45 -11 -19 17 -21 17 -27 2 -4
-11 8 -37 34 -74 45 -64 69 -74 64 -26 -2 19 3 36 12 44 9 7 16 18 16 24 0 6
11 23 25 38 14 15 25 30 25 33 0 3 27 44 60 92 32 47 57 90 54 95 -7 10 -26 9
-94 -8z m-32 -75 c-34 -61 -43 -65 -66 -25 l-20 34 26 11 c15 5 38 12 52 14
14 2 26 5 28 6 2 0 -7 -17 -20 -40z"/>
<path d="M4484 3743 c-9 -36 -12 -39 -114 -79 -122 -49 -142 -52 -163 -21 -11
16 -18 19 -26 11 -8 -7 -4 -29 17 -80 16 -38 33 -69 38 -69 5 0 10 14 12 32 2
17 9 36 16 42 18 15 197 81 190 70 -3 -5 -39 -60 -80 -121 -126 -188 -129
-206 -28 -165 111 46 223 87 237 87 8 0 21 -10 30 -22 11 -16 18 -20 26 -13 8
8 3 30 -16 78 -28 71 -53 88 -53 37 0 -20 -7 -34 -22 -44 -19 -12 -153 -66
-164 -66 -2 0 35 59 82 130 l86 131 -19 46 c-24 59 -37 63 -49 16z"/>
<path d="M724 3673 c-10 -16 -28 -18 -188 -15 -160 4 -176 2 -183 -14 -4 -12
2 -25 23 -42 94 -79 218 -210 223 -236 4 -16 11 -31 16 -33 10 -3 55 96 55
122 0 19 -14 19 -30 0 -16 -20 -30 -19 -57 4 -28 23 -28 33 -5 89 17 42 18 43
62 40 41 -3 45 -5 42 -26 -3 -18 1 -23 13 -20 15 3 65 111 65 139 0 16 -25 10
-36 -8z m-203 -81 l36 -7 -16 -37 -16 -37 -47 44 c-45 44 -46 45 -20 44 15 0
43 -3 63 -7z"/>
<path d="M4096 1366 c-139 -135 -157 -157 -151 -177 8 -27 73 -99 89 -99 6 0
56 46 112 101 89 89 124 111 124 80 0 -5 -45 -53 -100 -107 -55 -54 -99 -105
-98 -113 2 -7 11 -19 20 -25 15 -9 32 3 111 82 51 51 97 89 102 85 4 -4 5 -3
1 4 -4 7 4 19 19 29 14 9 32 29 40 44 14 26 13 29 -21 59 -20 19 -32 37 -28
44 4 7 3 9 -1 4 -5 -4 -17 1 -27 10 -18 16 -21 14 -71 -35 -29 -29 -57 -49
-62 -45 -4 5 -5 3 -2 -3 10 -17 -88 -108 -109 -100 -16 6 -16 8 2 27 10 11 23
18 30 15 8 -3 11 1 7 10 -5 13 8 19 30 15 5 -1 6 3 3 7 -3 5 38 52 91 105 97
95 97 96 79 116 -11 12 -22 21 -25 21 -3 0 -77 -70 -165 -154z"/>
<path d="M937 1342 c-10 -10 -17 -23 -17 -28 0 -5 47 -54 105 -109 79 -74 103
-104 96 -114 -7 -10 -35 11 -121 94 l-112 108 -56 -56 -57 -57 32 -32 33 -32
35 34 35 34 99 -97 c54 -53 106 -97 115 -97 25 0 96 69 96 94 0 13 -25 46 -65
86 -35 35 -61 68 -58 73 3 6 2 7 -3 4 -6 -3 -38 21 -72 54 -34 32 -64 59 -66
59 -1 0 -10 -8 -19 -18z"/>
<path d="M3670 1021 c-80 -54 -146 -104 -148 -112 -1 -8 3 -23 11 -33 14 -19
-6 -31 269 156 57 38 58 39 42 63 -9 14 -19 25 -23 24 -3 0 -71 -44 -151 -98z"/>
<path d="M1283 958 c-53 -74 -104 -150 -101 -153 2 -1 18 -12 36 -24 19 -13
37 -20 41 -15 5 5 38 53 75 106 l66 96 -29 21 c-16 12 -34 21 -39 21 -6 0 -27
-24 -49 -52z"/>
<path d="M3771 975 c-19 -13 -39 -21 -44 -18 -6 3 -7 2 -4 -3 3 -5 -30 -34
-74 -63 -43 -30 -79 -58 -79 -62 0 -11 70 -111 84 -121 8 -5 67 29 111 64 6 5
53 36 105 71 52 34 96 69 98 77 1 9 -4 24 -12 35 -13 18 -19 16 -135 -64 -77
-52 -128 -81 -138 -77 -12 5 -13 9 -3 22 7 8 19 13 27 10 8 -3 12 -2 9 3 -3 4
28 30 69 56 73 48 73 49 57 71 -21 29 -29 29 -71 -1z"/>
<path d="M1482 868 c-5 -7 -29 -51 -52 -97 -30 -60 -39 -89 -33 -102 4 -10 69
-48 143 -84 74 -36 154 -76 178 -88 37 -19 44 -20 52 -7 23 36 11 48 -122 114
-73 36 -139 69 -147 74 -11 8 -8 20 15 63 15 30 28 55 29 56 0 0 77 -37 170
-83 153 -75 171 -82 183 -67 14 19 16 53 3 53 -5 0 -92 41 -194 90 -102 50
-192 90 -200 90 -8 0 -19 -6 -25 -12z"/>
<path d="M3363 840 c-4 -4 -24 -13 -43 -20 -54 -20 -123 -50 -143 -61 -9 -5
-42 -19 -71 -30 -54 -20 -54 -20 -43 -50 14 -35 3 -37 169 34 97 42 128 52
132 41 6 -16 3 -18 -144 -79 -63 -26 -119 -51 -123 -55 -6 -5 43 -130 58 -148
3 -3 75 27 75 32 0 2 -7 20 -15 39 -8 20 -15 40 -15 45 0 12 49 34 60 27 5 -3
10 -1 12 4 1 5 30 20 63 34 l60 26 18 -42 c10 -23 20 -43 22 -46 6 -5 75 31
75 39 0 4 -10 26 -22 51 -12 24 -23 50 -24 57 -1 7 -12 33 -23 56 -19 42 -57
64 -78 46z"/>
<path d="M1990 669 c0 -8 -3 -24 -6 -35 -5 -20 0 -22 66 -32 40 -6 74 -12 76
-14 1 -2 -1 -33 -7 -68 -19 -123 -20 -118 24 -125 21 -4 41 -5 44 -2 3 3 10
43 16 89 6 46 15 86 19 89 5 3 34 2 66 -3 31 -4 81 -11 110 -14 l52 -6 0 31
c0 17 -2 31 -5 31 -3 0 -51 7 -108 15 -56 9 -149 22 -207 30 -58 8 -113 17
-123 21 -11 4 -17 1 -17 -7z"/>
<path d="M2907 672 c-36 -3 -38 -5 -33 -30 3 -15 8 -47 11 -72 3 -25 8 -56 11
-71 5 -25 3 -25 -83 -37 -171 -24 -162 -24 -167 1 -3 12 -10 55 -17 95 l-11
74 -37 -7 c-20 -4 -38 -11 -42 -16 -3 -5 0 -42 7 -82 7 -39 13 -86 14 -103 0
-45 20 -57 77 -50 26 4 62 8 79 10 17 2 66 9 110 15 43 7 92 14 108 16 49 6
51 15 38 138 -7 61 -16 114 -20 117 -4 3 -24 4 -45 2z"/>
</g>
</svg>
